<svg width="22" height="27" viewBox="0 0 22 27" fill="none" xmlns="http://www.w3.org/2000/svg">
<g filter="url(#filter0_d)">
<path d="M15.9999 6.66665H15.1666V4.99998C15.1666 2.69998 13.2999 0.833313 10.9999 0.833313C8.69992 0.833313 6.83325 2.69998 6.83325 4.99998V6.66665H5.99992C5.08325 6.66665 4.33325 7.41665 4.33325 8.33331V16.6666C4.33325 17.5833 5.08325 18.3333 5.99992 18.3333H15.9999C16.9166 18.3333 17.6666 17.5833 17.6666 16.6666V8.33331C17.6666 7.41665 16.9166 6.66665 15.9999 6.66665ZM10.9999 14.1666C10.0833 14.1666 9.33325 13.4166 9.33325 12.5C9.33325 11.5833 10.0833 10.8333 10.9999 10.8333C11.9166 10.8333 12.6666 11.5833 12.6666 12.5C12.6666 13.4166 11.9166 14.1666 10.9999 14.1666ZM13.5833 6.66665H8.41658V4.99998C8.41658 3.57498 9.57492 2.41665 10.9999 2.41665C12.4249 2.41665 13.5833 3.57498 13.5833 4.99998V6.66665Z" fill="#A5B0C1"/>
</g>
<defs>
<filter id="filter0_d" x="-3" y="0" width="28" height="28" filterUnits="userSpaceOnUse" color-interpolation-filters="sRGB">
<feFlood flood-opacity="0" result="BackgroundImageFix"/>
<feColorMatrix in="SourceAlpha" type="matrix" values="0 0 0 0 0 0 0 0 0 0 0 0 0 0 0 0 0 0 127 0"/>
<feOffset dy="4"/>
<feGaussianBlur stdDeviation="2"/>
<feColorMatrix type="matrix" values="0 0 0 0 0 0 0 0 0 0 0 0 0 0 0 0 0 0 0.25 0"/>
<feBlend mode="normal" in2="BackgroundImageFix" result="effect1_dropShadow"/>
<feBlend mode="normal" in="SourceGraphic" in2="effect1_dropShadow" result="shape"/>
</filter>
</defs>
</svg>
